<svg xmlns="http://www.w3.org/2000/svg" width="23.441" height="23.051" viewBox="0 0 23.441 23.051">
  <path id="github-mark" d="M11.73,0A11.829,11.829,0,0,0,8.021,23.028c.583.118.8-.254.8-.567,0-.274-.019-1.213-.019-2.191-3.263.7-3.943-1.409-3.943-1.409a3.019,3.019,0,0,0-1.3-1.722c-1.068-.724.078-.724.078-.724a2.46,2.46,0,0,1,1.806,1.213,2.485,2.485,0,0,0,3.418.978,2.518,2.518,0,0,1,.738-1.585c-2.6-.274-5.341-1.291-5.341-5.831a4.626,4.626,0,0,1,1.2-3.169,4.3,4.3,0,0,1,.117-3.131S6.564,4.578,8.8,6.1a11.183,11.183,0,0,1,5.865,0c2.234-1.526,3.224-1.213,3.224-1.213A4.3,4.3,0,0,1,18,8.022a4.538,4.538,0,0,1,1.2,3.169c0,4.539-2.738,5.537-5.36,5.831a2.807,2.807,0,0,1,.8,2.191c0,1.585-.019,2.857-.019,3.248,0,.313.214.685.8.568A11.829,11.829,0,0,0,11.73,0Z" fill="#fff" fill-rule="evenodd"/>
</svg>
