<svg id="mail" xmlns="http://www.w3.org/2000/svg" width="14.939" height="14.939" viewBox="0 0 14.939 14.939">
  <path id="Path_25" data-name="Path 25" d="M0,0H14.939V14.939H0Z" fill="none"/>
  <path id="Path_26" data-name="Path 26" d="M14.449,7.535v5.892a1.867,1.867,0,0,1-1.758,1.864l-.109,0H3.867A1.867,1.867,0,0,1,2,13.536l0-.109V7.535l5.879,3.92.072.041a.622.622,0,0,0,.547,0l.072-.041,5.879-3.92Z" transform="translate(-0.755 -2.845)" fill="#fff"/>
  <path id="Path_27" data-name="Path 27" d="M12.75,4a1.865,1.865,0,0,1,1.59.888L8.393,8.853,2.445,4.888A1.867,1.867,0,0,1,3.91,4l.125,0Z" transform="translate(-0.923 -1.51)" fill="#fff"/>
</svg>
